<svg xmlns="http://www.w3.org/2000/svg" xmlns:xlink="http://www.w3.org/1999/xlink" width="278.439" height="88.419" viewBox="0 0 278.439 88.419">
  <defs>
    <linearGradient id="linear-gradient" x1="0.5" y1="0.998" x2="0.506" y2="-0.003" gradientUnits="objectBoundingBox">
      <stop offset="0" stop-color="#f39200"/>
      <stop offset="1" stop-color="#f97204"/>
    </linearGradient>
    <linearGradient id="linear-gradient-2" x1="0.5" y1="-0.017" x2="0.491" y2="0.993" gradientUnits="objectBoundingBox">
      <stop offset="0" stop-color="#16b2d7"/>
      <stop offset="1" stop-color="#03759c"/>
    </linearGradient>
    <linearGradient id="linear-gradient-3" x1="0.495" y1="0.994" x2="0.506" y2="0.005" gradientUnits="objectBoundingBox">
      <stop offset="0" stop-color="#03bfc0"/>
      <stop offset="1" stop-color="#c5d93a"/>
    </linearGradient>
  </defs>
  <g id="Capa_2" data-name="Capa 2" transform="translate(0 -0.063)">
    <g id="Capa_1" data-name="Capa 1" transform="translate(0 0.063)">
      <path id="Trazado_50" data-name="Trazado 50" d="M30.944,42.707a13.4,13.4,0,0,1,26.61,0H88.5a44.28,44.28,0,0,0-88.5,0Z" transform="translate(0 -0.063)" fill="url(#linear-gradient)"/>
      <path id="Trazado_51" data-name="Trazado 51" d="M57.509,30.61a13.4,13.4,0,0,1-26.519,0H0a44.28,44.28,0,0,0,88.469,0Z" transform="translate(0 15.523)" fill="url(#linear-gradient-2)"/>
      <path id="Trazado_52" data-name="Trazado 52" d="M0,30.61H1.9A42.286,42.286,0,0,1,44.189,72.9H0Z" transform="translate(0 15.523)" fill="url(#linear-gradient-3)"/>
      <path id="Trazado_53" data-name="Trazado 53" d="M99.507,26.825a14.377,14.377,0,0,1,1.42,6.449,14.166,14.166,0,0,1-1.42,6.418,12.475,12.475,0,0,1-3.655,4.531,15.208,15.208,0,0,1-9.409,3.5H79.617v6.192a14.376,14.376,0,0,1-.091,1.888,4.2,4.2,0,0,1-.513,1.51c-.513.982-1.933,1.51-4.259,1.51s-4.047-.68-4.531-2.024a8.925,8.925,0,0,1-.211-2.885V23.548a14.371,14.371,0,0,1,0-1.888,4.2,4.2,0,0,1,.513-1.51c.513-.982,1.933-1.51,4.259-1.51h11.7A15.1,15.1,0,0,1,95.852,22.2a12.58,12.58,0,0,1,3.655,4.621ZM89.72,36.883a4.244,4.244,0,0,0,1.51-3.609,4.349,4.349,0,0,0-1.51-3.64,5.3,5.3,0,0,0-3.277-1.223H79.617v9.665H86.5a5.286,5.286,0,0,0,3.217-1.193Z" transform="translate(35.703 9.416)" fill="#023d67"/>
      <path id="Trazado_54" data-name="Trazado 54" d="M111.772,29.216c.227-2.039,1.661-3.02,4.319-3.02a11.719,11.719,0,0,1,3.171.317,2.326,2.326,0,0,1,1.51,1.148,5.164,5.164,0,0,1,.5,1.51,18.83,18.83,0,0,1,0,1.888V50.087a18.623,18.623,0,0,1,0,1.888,5.165,5.165,0,0,1-.468,1.51c-.513.951-1.752,1.42-3.745,1.42a7.294,7.294,0,0,1-3.987-.74,2.9,2.9,0,0,1-1.178-2.16q-2.009,2.9-6.751,2.9a11.916,11.916,0,0,1-8.774-4.365A14.272,14.272,0,0,1,92.32,40.512a14.045,14.045,0,0,1,4.047-10.058,12.082,12.082,0,0,1,8.94-4.3,8.457,8.457,0,0,1,3.383.664,7.446,7.446,0,0,1,2.129,1.223A7.023,7.023,0,0,1,111.772,29.216Zm-9.937,11.372a4.531,4.531,0,0,0,1.42,3.262,4.651,4.651,0,0,0,3.443,1.51,4.349,4.349,0,0,0,3.353-1.51,4.682,4.682,0,0,0,1.344-3.262,4.984,4.984,0,0,0-1.284-3.292,4.259,4.259,0,0,0-3.443-1.51,4.425,4.425,0,0,0-3.5,1.51,4.938,4.938,0,0,0-1.329,3.292Z" transform="translate(47.103 13.247)" fill="#023d67"/>
      <path id="Trazado_55" data-name="Trazado 55" d="M123.722,40.66a4.531,4.531,0,0,0,1.51,3.609,5,5,0,0,0,3.262,1.284,5.588,5.588,0,0,0,3.217-1.012,4.938,4.938,0,0,1,2.431-1.012c1.1,0,2.431.967,4,2.9a4.848,4.848,0,0,1,1.253,2.854c0,1.374-1.012,2.673-3.02,3.881a13.078,13.078,0,0,1-7.657,2.175,15.812,15.812,0,0,1-9.756-3.64,12.882,12.882,0,0,1-3.655-4.682,14.483,14.483,0,0,1-1.51-6.449,14.135,14.135,0,0,1,1.51-6.388,12.913,12.913,0,0,1,3.655-4.621,15.3,15.3,0,0,1,9.68-3.609,14.649,14.649,0,0,1,4.047.574,13.5,13.5,0,0,1,2.884,1.118l.876.544,1.51,1.042a3.141,3.141,0,0,1,1.42,2.492,6.041,6.041,0,0,1-1.148,3.141c-1.314,2.009-2.567,3.02-3.776,3.02a6.162,6.162,0,0,1-3.02-1.208,3.972,3.972,0,0,0-2.824-.921,5.24,5.24,0,0,0-3.413,1.314A4.531,4.531,0,0,0,123.722,40.66Z" transform="translate(58.063 13.145)" fill="#023d67"/>
      <path id="Trazado_56" data-name="Trazado 56" d="M133.134,30.975a18.834,18.834,0,0,1,0-1.888,5.482,5.482,0,0,1,.468-1.51c.514-.936,1.933-1.42,4.274-1.42a5.814,5.814,0,0,1,3.715.936,3.02,3.02,0,0,1,.982,2.356q0,.544,0,1.586v19.18A14.975,14.975,0,0,1,142.5,52.1a4.531,4.531,0,0,1-.513,1.51c-.483.951-1.888,1.42-4.214,1.42s-3.7-.483-4.213-1.51a5.406,5.406,0,0,1-.468-1.435,18.122,18.122,0,0,1,0-1.9Z" transform="translate(67.891 13.24)" fill="#023d67"/>
      <path id="Trazado_57" data-name="Trazado 57" d="M159.651,30.769c2.507,0,3.987.695,4.425,2.084a9.545,9.545,0,0,1,.332,2.733,8.216,8.216,0,0,1-.363,2.7,2.537,2.537,0,0,1-1.118,1.51,6.841,6.841,0,0,1-3.338.649l-3.5-.211V54.887a6.962,6.962,0,0,1-.513,3.02,2.552,2.552,0,0,1-1.51,1.344,9.334,9.334,0,0,1-2.764.332,8.291,8.291,0,0,1-2.7-.362,2.507,2.507,0,0,1-1.51-1.148,4,4,0,0,1-.514-1.51,14.962,14.962,0,0,1-.091-1.9V40.238h-1.963a3.428,3.428,0,0,1-2.024-.664,5.693,5.693,0,0,1-1.042-3.987c0-3.02,1.087-4.531,3.232-4.531h1.8V28.2a11.342,11.342,0,0,1,3.02-7.551,11.025,11.025,0,0,1,8.7-3.413,14.529,14.529,0,0,1,1.888.091,4.2,4.2,0,0,1,1.51.513c.982.468,1.51,1.873,1.51,4.213a6.041,6.041,0,0,1-.921,3.76,3.353,3.353,0,0,1-2.4,1h-1.51c-1.344,0-2.024.453-2.024,1.359v3.02Zm7.974,4.757a14.521,14.521,0,0,1,.091-1.888,4.879,4.879,0,0,1,.453-1.51c.513-.936,1.933-1.42,4.274-1.42a5.754,5.754,0,0,1,3.715.936A3.021,3.021,0,0,1,177.139,34q0,.544,0,1.586v19.18a14.387,14.387,0,0,1-.091,1.888,4.2,4.2,0,0,1-.514,1.51c-.483.951-1.888,1.42-4.213,1.42s-3.7-.483-4.213-1.51a4.818,4.818,0,0,1-.453-1.435,14.015,14.015,0,0,1-.091-1.9Z" transform="translate(72.152 8.689)" fill="#023d67"/>
      <path id="Trazado_58" data-name="Trazado 58" d="M177.337,40.66a4.425,4.425,0,0,0,1.51,3.609,4.923,4.923,0,0,0,3.247,1.284,5.679,5.679,0,0,0,3.232-1.012,4.878,4.878,0,0,1,2.431-1.012q1.631,0,3.987,2.9A4.848,4.848,0,0,1,193,49.283c0,1.374-1,2.673-3.02,3.881a13.048,13.048,0,0,1-7.657,2.175,15.812,15.812,0,0,1-9.786-3.64,13.049,13.049,0,0,1-3.655-4.682,14.484,14.484,0,0,1-1.42-6.449,14.121,14.121,0,0,1,1.42-6.388,13.079,13.079,0,0,1,3.655-4.621,15.329,15.329,0,0,1,9.681-3.609,14.559,14.559,0,0,1,4.047.574,13.366,13.366,0,0,1,2.9,1.118l.876.544,1.51,1.042a3.111,3.111,0,0,1,1.42,2.492,5.875,5.875,0,0,1-1.148,3.141c-1.314,2.009-2.567,3.02-3.776,3.02a6.207,6.207,0,0,1-2.945-1.208,3.942,3.942,0,0,0-2.809-.921,5.286,5.286,0,0,0-3.428,1.314A4.531,4.531,0,0,0,177.337,40.66Z" transform="translate(85.44 13.145)" fill="#023d67"/>
      <text id="Mercado" transform="translate(139.106 32.085)" fill="#f97204" font-size="13" font-family="Montserrat" font-weight="700"><tspan x="0" y="0">Me</tspan><tspan y="0" letter-spacing="-0.01em">r</tspan><tspan y="0">c</tspan><tspan y="0" letter-spacing="0.01em">a</tspan><tspan y="0">do</tspan></text>
    </g>
  </g>
</svg>
