<svg xmlns="http://www.w3.org/2000/svg" xmlns:xlink="http://www.w3.org/1999/xlink" width="53.058" height="541.778" viewBox="0 0 53.058 541.778">
  <defs>
    <linearGradient id="linear-gradient" x1="0.5" y1="0.023" x2="0.5" y2="1" gradientUnits="objectBoundingBox">
      <stop offset="0" stop-color="#03bcbd"/>
      <stop offset="0.433" stop-color="#c2d63a"/>
      <stop offset="0.784" stop-color="#f08f00"/>
      <stop offset="1" stop-color="#f67204"/>
    </linearGradient>
  </defs>
  <g id="Grupo_228" data-name="Grupo 228" transform="translate(-670.118 -2557.611)">
    <path id="Unión_1" data-name="Unión 1" d="M-426.176,625.278A26.032,26.032,0,0,1-449.5,599.389,26.033,26.033,0,0,1-426.176,573.5V527.278A26.031,26.031,0,0,1-449.5,501.389,26.033,26.033,0,0,1-426.176,475.5V426.925A26.032,26.032,0,0,1-449.5,401.036a26.032,26.032,0,0,1,23.324-25.889V332.278A26.033,26.033,0,0,1-449.5,306.389,26.031,26.031,0,0,1-426.176,280.5V230.925A26.032,26.032,0,0,1-449.5,205.036a26.032,26.032,0,0,1,23.324-25.889V136.278A26.032,26.032,0,0,1-449.5,110.389,26.032,26.032,0,0,1-426.176,84.5h5.409a26.032,26.032,0,0,1,23.324,25.889,26.032,26.032,0,0,1-23.324,25.889v42.869a26.032,26.032,0,0,1,23.324,25.889,26.032,26.032,0,0,1-23.324,25.889V280.5a26.031,26.031,0,0,1,23.324,25.888,26.033,26.033,0,0,1-23.324,25.889v42.869a26.032,26.032,0,0,1,23.324,25.889,26.032,26.032,0,0,1-23.324,25.889V475.5a26.033,26.033,0,0,1,23.324,25.889,26.031,26.031,0,0,1-23.324,25.888V573.5a26.033,26.033,0,0,1,23.324,25.889,26.032,26.032,0,0,1-23.324,25.888Z" transform="translate(1120.119 2473.611)" stroke="rgba(0,0,0,0)" stroke-width="1" fill="url(#linear-gradient)"/>
  </g>
</svg>
