<svg xmlns="http://www.w3.org/2000/svg" width="28" height="28" viewBox="0 0 28 28">
  <path id="Icon_awesome-instagram" data-name="Icon awesome-instagram" d="M14,9.059a7.179,7.179,0,1,0,7.177,7.179A7.167,7.167,0,0,0,14,9.059ZM14,20.9a4.667,4.667,0,1,1,4.666-4.667A4.675,4.675,0,0,1,14,20.9Zm9.145-12.14a1.674,1.674,0,1,1-1.674-1.674A1.67,1.67,0,0,1,23.143,8.765Zm4.754,1.7A8.287,8.287,0,0,0,25.635,4.6,8.338,8.338,0,0,0,19.77,2.336c-2.311-.131-9.239-.131-11.55,0A8.326,8.326,0,0,0,2.354,4.592,8.315,8.315,0,0,0,.093,10.458c-.131,2.312-.131,9.241,0,11.552a8.287,8.287,0,0,0,2.261,5.867A8.349,8.349,0,0,0,8.22,30.139c2.311.131,9.239.131,11.55,0a8.283,8.283,0,0,0,5.865-2.262A8.342,8.342,0,0,0,27.9,22.011c.131-2.312.131-9.234,0-11.546ZM24.911,24.491a4.725,4.725,0,0,1-2.661,2.662c-1.843.731-6.215.562-8.252.562s-6.415.162-8.252-.562a4.725,4.725,0,0,1-2.661-2.662c-.731-1.843-.562-6.217-.562-8.253s-.162-6.417.562-8.253A4.725,4.725,0,0,1,5.746,5.323C7.589,4.592,11.961,4.76,14,4.76s6.415-.162,8.252.562a4.725,4.725,0,0,1,2.661,2.662c.731,1.843.562,6.217.562,8.253S25.641,22.654,24.911,24.491Z" transform="translate(0.005 -2.238)" fill="#023d67"/>
</svg>
